<mxfile host="app.diagrams.net" modified="2023-04-14T19:14:34.629Z" agent="Mozilla/5.0 (Windows NT 10.0; Win64; x64) AppleWebKit/537.36 (KHTML, like Gecko) Chrome/112.0.0.0 Safari/537.36" etag="iuz_k2Txa8M3g7HcLNk6" version="21.1.8" type="device">
  <diagram name="Страница 1" id="ebYBxGvxtz_Oh3nTVKpT">
    <mxGraphModel dx="1562" dy="837" grid="0" gridSize="10" guides="1" tooltips="1" connect="1" arrows="1" fold="1" page="1" pageScale="1" pageWidth="1000" pageHeight="1000" background="none" math="0" shadow="1">
      <root>
        <mxCell id="0" />
        <mxCell id="1" parent="0" />
        <mxCell id="l6pqS2dVSHnxyNAQUy2T-1" value="&lt;font color=&quot;#080008&quot;&gt;Admin&lt;/font&gt;" style="shape=umlActor;verticalLabelPosition=bottom;verticalAlign=top;html=1;outlineConnect=0;hachureGap=4;strokeColor=#080008;fontFamily=Architects Daughter;fontSource=https%3A%2F%2Ffonts.googleapis.com%2Fcss%3Ffamily%3DArchitects%2BDaughter;fontSize=20;fontColor=#EEEEEE;fillColor=none;rounded=1;" parent="1" vertex="1">
          <mxGeometry x="338" y="446" width="30" height="60" as="geometry" />
        </mxCell>
        <mxCell id="l6pqS2dVSHnxyNAQUy2T-2" value="&lt;font color=&quot;#080008&quot;&gt;Buyer&lt;/font&gt;" style="shape=umlActor;verticalLabelPosition=bottom;verticalAlign=top;html=1;outlineConnect=0;hachureGap=4;strokeColor=#030303;fontFamily=Architects Daughter;fontSource=https%3A%2F%2Ffonts.googleapis.com%2Fcss%3Ffamily%3DArchitects%2BDaughter;fontSize=20;fontColor=#EEEEEE;fillColor=default;rounded=1;" parent="1" vertex="1">
          <mxGeometry x="434" y="376" width="30" height="60" as="geometry" />
        </mxCell>
        <mxCell id="l6pqS2dVSHnxyNAQUy2T-8" value="" style="endArrow=none;html=1;rounded=1;hachureGap=4;fontFamily=Architects Daughter;fontSource=https%3A%2F%2Ffonts.googleapis.com%2Fcss%3Ffamily%3DArchitects%2BDaughter;fontSize=16;entryX=0.5;entryY=1;entryDx=0;entryDy=0;" parent="1" target="l6pqS2dVSHnxyNAQUy2T-11" edge="1">
          <mxGeometry width="50" height="50" relative="1" as="geometry">
            <mxPoint x="469" y="368" as="sourcePoint" />
            <mxPoint x="543" y="316.9999999999999" as="targetPoint" />
          </mxGeometry>
        </mxCell>
        <mxCell id="l6pqS2dVSHnxyNAQUy2T-11" value="Buyer menu" style="ellipse;whiteSpace=wrap;html=1;hachureGap=4;fontFamily=Architects Daughter;fontSource=https%3A%2F%2Ffonts.googleapis.com%2Fcss%3Ffamily%3DArchitects%2BDaughter;fontSize=20;rounded=1;" parent="1" vertex="1">
          <mxGeometry x="459" y="287" width="106" height="53" as="geometry" />
        </mxCell>
        <mxCell id="l6pqS2dVSHnxyNAQUy2T-14" value="" style="endArrow=none;html=1;rounded=1;hachureGap=4;fontFamily=Architects Daughter;fontSource=https%3A%2F%2Ffonts.googleapis.com%2Fcss%3Ffamily%3DArchitects%2BDaughter;fontSize=16;entryX=1;entryY=0.5;entryDx=0;entryDy=0;exitX=0;exitY=0.5;exitDx=0;exitDy=0;" parent="1" source="l6pqS2dVSHnxyNAQUy2T-11" target="l6pqS2dVSHnxyNAQUy2T-15" edge="1">
          <mxGeometry width="50" height="50" relative="1" as="geometry">
            <mxPoint x="408" y="298" as="sourcePoint" />
            <mxPoint x="514" y="240" as="targetPoint" />
          </mxGeometry>
        </mxCell>
        <mxCell id="l6pqS2dVSHnxyNAQUy2T-15" value="Check action history" style="ellipse;whiteSpace=wrap;html=1;hachureGap=4;fontFamily=Architects Daughter;fontSource=https%3A%2F%2Ffonts.googleapis.com%2Fcss%3Ffamily%3DArchitects%2BDaughter;fontSize=20;rounded=1;" parent="1" vertex="1">
          <mxGeometry x="259" y="303" width="146" height="73" as="geometry" />
        </mxCell>
        <mxCell id="l6pqS2dVSHnxyNAQUy2T-16" value="Find action" style="ellipse;whiteSpace=wrap;html=1;hachureGap=4;fontFamily=Architects Daughter;fontSource=https%3A%2F%2Ffonts.googleapis.com%2Fcss%3Ffamily%3DArchitects%2BDaughter;fontSize=20;rounded=1;" parent="1" vertex="1">
          <mxGeometry x="577" y="225" width="106" height="53" as="geometry" />
        </mxCell>
        <mxCell id="l6pqS2dVSHnxyNAQUy2T-17" value="" style="endArrow=none;html=1;rounded=1;hachureGap=4;fontFamily=Architects Daughter;fontSource=https%3A%2F%2Ffonts.googleapis.com%2Fcss%3Ffamily%3DArchitects%2BDaughter;fontSize=16;exitX=1;exitY=0;exitDx=0;exitDy=0;entryX=0;entryY=1;entryDx=0;entryDy=0;" parent="1" source="l6pqS2dVSHnxyNAQUy2T-11" target="l6pqS2dVSHnxyNAQUy2T-16" edge="1">
          <mxGeometry width="50" height="50" relative="1" as="geometry">
            <mxPoint x="522" y="297" as="sourcePoint" />
            <mxPoint x="522" y="22" as="targetPoint" />
          </mxGeometry>
        </mxCell>
        <mxCell id="l6pqS2dVSHnxyNAQUy2T-19" value="" style="endArrow=block;html=1;rounded=1;hachureGap=4;fontFamily=Architects Daughter;fontSource=https%3A%2F%2Ffonts.googleapis.com%2Fcss%3Ffamily%3DArchitects%2BDaughter;fontSize=16;entryX=1;entryY=0;entryDx=0;entryDy=0;exitX=0;exitY=1;exitDx=0;exitDy=0;endFill=0;" parent="1" source="l6pqS2dVSHnxyNAQUy2T-20" target="l6pqS2dVSHnxyNAQUy2T-16" edge="1">
          <mxGeometry width="50" height="50" relative="1" as="geometry">
            <mxPoint x="710" y="192" as="sourcePoint" />
            <mxPoint x="737" y="164" as="targetPoint" />
          </mxGeometry>
        </mxCell>
        <mxCell id="l6pqS2dVSHnxyNAQUy2T-20" value="By name" style="ellipse;whiteSpace=wrap;html=1;hachureGap=4;fontFamily=Architects Daughter;fontSource=https%3A%2F%2Ffonts.googleapis.com%2Fcss%3Ffamily%3DArchitects%2BDaughter;fontSize=20;rounded=1;" parent="1" vertex="1">
          <mxGeometry x="698" y="156" width="86" height="43" as="geometry" />
        </mxCell>
        <mxCell id="l6pqS2dVSHnxyNAQUy2T-21" value="By date" style="ellipse;whiteSpace=wrap;html=1;hachureGap=4;fontFamily=Architects Daughter;fontSource=https%3A%2F%2Ffonts.googleapis.com%2Fcss%3Ffamily%3DArchitects%2BDaughter;fontSize=20;rounded=1;" parent="1" vertex="1">
          <mxGeometry x="715" y="244" width="86" height="43" as="geometry" />
        </mxCell>
        <mxCell id="l6pqS2dVSHnxyNAQUy2T-22" value="" style="endArrow=block;html=1;rounded=1;hachureGap=4;fontFamily=Architects Daughter;fontSource=https%3A%2F%2Ffonts.googleapis.com%2Fcss%3Ffamily%3DArchitects%2BDaughter;fontSize=16;entryX=1;entryY=0.5;entryDx=0;entryDy=0;exitX=0;exitY=0.5;exitDx=0;exitDy=0;endFill=0;" parent="1" source="l6pqS2dVSHnxyNAQUy2T-21" target="l6pqS2dVSHnxyNAQUy2T-16" edge="1">
          <mxGeometry width="50" height="50" relative="1" as="geometry">
            <mxPoint x="721" y="203" as="sourcePoint" />
            <mxPoint x="677" y="243" as="targetPoint" />
          </mxGeometry>
        </mxCell>
        <mxCell id="l6pqS2dVSHnxyNAQUy2T-23" value="Open action" style="ellipse;whiteSpace=wrap;html=1;hachureGap=4;fontFamily=Architects Daughter;fontSource=https%3A%2F%2Ffonts.googleapis.com%2Fcss%3Ffamily%3DArchitects%2BDaughter;fontSize=20;rounded=1;" parent="1" vertex="1">
          <mxGeometry x="498" y="176" width="106" height="53" as="geometry" />
        </mxCell>
        <mxCell id="l6pqS2dVSHnxyNAQUy2T-24" value="" style="endArrow=none;html=1;rounded=1;hachureGap=4;fontFamily=Architects Daughter;fontSource=https%3A%2F%2Ffonts.googleapis.com%2Fcss%3Ffamily%3DArchitects%2BDaughter;fontSize=16;exitX=0.666;exitY=-0.005;exitDx=0;exitDy=0;entryX=0.5;entryY=1;entryDx=0;entryDy=0;exitPerimeter=0;" parent="1" source="l6pqS2dVSHnxyNAQUy2T-11" target="l6pqS2dVSHnxyNAQUy2T-23" edge="1">
          <mxGeometry width="50" height="50" relative="1" as="geometry">
            <mxPoint x="559" y="305" as="sourcePoint" />
            <mxPoint x="603" y="280" as="targetPoint" />
          </mxGeometry>
        </mxCell>
        <mxCell id="l6pqS2dVSHnxyNAQUy2T-25" value="Buy ticket" style="ellipse;whiteSpace=wrap;html=1;hachureGap=4;fontFamily=Architects Daughter;fontSource=https%3A%2F%2Ffonts.googleapis.com%2Fcss%3Ffamily%3DArchitects%2BDaughter;fontSize=20;rounded=1;" parent="1" vertex="1">
          <mxGeometry x="374" y="176" width="106" height="53" as="geometry" />
        </mxCell>
        <mxCell id="l6pqS2dVSHnxyNAQUy2T-26" value="" style="endArrow=none;html=1;rounded=1;hachureGap=4;fontFamily=Architects Daughter;fontSource=https%3A%2F%2Ffonts.googleapis.com%2Fcss%3Ffamily%3DArchitects%2BDaughter;fontSize=16;exitX=0.332;exitY=0.016;exitDx=0;exitDy=0;entryX=0.723;entryY=0.975;entryDx=0;entryDy=0;exitPerimeter=0;entryPerimeter=0;" parent="1" source="l6pqS2dVSHnxyNAQUy2T-11" target="l6pqS2dVSHnxyNAQUy2T-25" edge="1">
          <mxGeometry width="50" height="50" relative="1" as="geometry">
            <mxPoint x="540" y="297" as="sourcePoint" />
            <mxPoint x="561" y="239" as="targetPoint" />
          </mxGeometry>
        </mxCell>
        <mxCell id="l6pqS2dVSHnxyNAQUy2T-28" value="Check all byed tickets" style="ellipse;whiteSpace=wrap;html=1;hachureGap=4;fontFamily=Architects Daughter;fontSource=https%3A%2F%2Ffonts.googleapis.com%2Fcss%3Ffamily%3DArchitects%2BDaughter;fontSize=20;rounded=1;" parent="1" vertex="1">
          <mxGeometry x="206" y="208" width="150" height="75" as="geometry" />
        </mxCell>
        <mxCell id="l6pqS2dVSHnxyNAQUy2T-29" value="" style="endArrow=none;html=1;rounded=1;hachureGap=4;fontFamily=Architects Daughter;fontSource=https%3A%2F%2Ffonts.googleapis.com%2Fcss%3Ffamily%3DArchitects%2BDaughter;fontSize=16;exitX=0.077;exitY=0.234;exitDx=0;exitDy=0;entryX=1.006;entryY=0.601;entryDx=0;entryDy=0;exitPerimeter=0;entryPerimeter=0;" parent="1" source="l6pqS2dVSHnxyNAQUy2T-11" target="l6pqS2dVSHnxyNAQUy2T-28" edge="1">
          <mxGeometry width="50" height="50" relative="1" as="geometry">
            <mxPoint x="504" y="298" as="sourcePoint" />
            <mxPoint x="461" y="238" as="targetPoint" />
          </mxGeometry>
        </mxCell>
        <mxCell id="l6pqS2dVSHnxyNAQUy2T-30" value="Cancel chosen ticket" style="ellipse;whiteSpace=wrap;html=1;hachureGap=4;fontFamily=Architects Daughter;fontSource=https%3A%2F%2Ffonts.googleapis.com%2Fcss%3Ffamily%3DArchitects%2BDaughter;fontSize=20;rounded=1;" parent="1" vertex="1">
          <mxGeometry x="663" y="303" width="150" height="75" as="geometry" />
        </mxCell>
        <mxCell id="l6pqS2dVSHnxyNAQUy2T-31" value="" style="endArrow=none;html=1;rounded=1;hachureGap=4;fontFamily=Architects Daughter;fontSource=https%3A%2F%2Ffonts.googleapis.com%2Fcss%3Ffamily%3DArchitects%2BDaughter;fontSize=16;exitX=1;exitY=0.5;exitDx=0;exitDy=0;entryX=0;entryY=0.5;entryDx=0;entryDy=0;" parent="1" source="l6pqS2dVSHnxyNAQUy2T-11" target="l6pqS2dVSHnxyNAQUy2T-30" edge="1">
          <mxGeometry width="50" height="50" relative="1" as="geometry">
            <mxPoint x="559" y="305" as="sourcePoint" />
            <mxPoint x="603" y="280" as="targetPoint" />
          </mxGeometry>
        </mxCell>
        <mxCell id="l6pqS2dVSHnxyNAQUy2T-32" value="Admin menu" style="ellipse;whiteSpace=wrap;html=1;hachureGap=4;fontFamily=Architects Daughter;fontSource=https%3A%2F%2Ffonts.googleapis.com%2Fcss%3Ffamily%3DArchitects%2BDaughter;fontSize=20;rounded=1;" parent="1" vertex="1">
          <mxGeometry x="393" y="569" width="106" height="53" as="geometry" />
        </mxCell>
        <mxCell id="l6pqS2dVSHnxyNAQUy2T-33" value="" style="endArrow=none;html=1;rounded=1;hachureGap=4;fontFamily=Architects Daughter;fontSource=https%3A%2F%2Ffonts.googleapis.com%2Fcss%3Ffamily%3DArchitects%2BDaughter;fontSize=16;entryX=0.5;entryY=0;entryDx=0;entryDy=0;" parent="1" target="l6pqS2dVSHnxyNAQUy2T-32" edge="1">
          <mxGeometry width="50" height="50" relative="1" as="geometry">
            <mxPoint x="378" y="495" as="sourcePoint" />
            <mxPoint x="326" y="415" as="targetPoint" />
          </mxGeometry>
        </mxCell>
        <mxCell id="l6pqS2dVSHnxyNAQUy2T-34" value="Buyer" style="ellipse;whiteSpace=wrap;html=1;hachureGap=4;fontFamily=Architects Daughter;fontSource=https%3A%2F%2Ffonts.googleapis.com%2Fcss%3Ffamily%3DArchitects%2BDaughter;fontSize=20;rounded=1;" parent="1" vertex="1">
          <mxGeometry x="523" y="510" width="106" height="53" as="geometry" />
        </mxCell>
        <mxCell id="l6pqS2dVSHnxyNAQUy2T-35" value="" style="endArrow=none;html=1;rounded=1;hachureGap=4;fontFamily=Architects Daughter;fontSource=https%3A%2F%2Ffonts.googleapis.com%2Fcss%3Ffamily%3DArchitects%2BDaughter;fontSize=16;exitX=0.057;exitY=0.784;exitDx=0;exitDy=0;exitPerimeter=0;" parent="1" source="l6pqS2dVSHnxyNAQUy2T-34" target="l6pqS2dVSHnxyNAQUy2T-32" edge="1">
          <mxGeometry width="50" height="50" relative="1" as="geometry">
            <mxPoint x="729" y="573" as="sourcePoint" />
            <mxPoint x="784" y="609" as="targetPoint" />
          </mxGeometry>
        </mxCell>
        <mxCell id="l6pqS2dVSHnxyNAQUy2T-36" value="Add buyer" style="ellipse;whiteSpace=wrap;html=1;hachureGap=4;fontFamily=Architects Daughter;fontSource=https%3A%2F%2Ffonts.googleapis.com%2Fcss%3Ffamily%3DArchitects%2BDaughter;fontSize=20;rounded=1;" parent="1" vertex="1">
          <mxGeometry x="499" y="424" width="106" height="53" as="geometry" />
        </mxCell>
        <mxCell id="l6pqS2dVSHnxyNAQUy2T-37" value="Delete Buyer" style="ellipse;whiteSpace=wrap;html=1;hachureGap=4;fontFamily=Architects Daughter;fontSource=https%3A%2F%2Ffonts.googleapis.com%2Fcss%3Ffamily%3DArchitects%2BDaughter;fontSize=20;rounded=1;" parent="1" vertex="1">
          <mxGeometry x="611" y="453" width="106" height="53" as="geometry" />
        </mxCell>
        <mxCell id="l6pqS2dVSHnxyNAQUy2T-39" value="" style="endArrow=block;html=1;rounded=1;hachureGap=4;fontFamily=Architects Daughter;fontSource=https%3A%2F%2Ffonts.googleapis.com%2Fcss%3Ffamily%3DArchitects%2BDaughter;fontSize=16;entryX=0.5;entryY=0;entryDx=0;entryDy=0;exitX=0.5;exitY=1;exitDx=0;exitDy=0;endFill=0;" parent="1" source="l6pqS2dVSHnxyNAQUy2T-36" target="l6pqS2dVSHnxyNAQUy2T-34" edge="1">
          <mxGeometry width="50" height="50" relative="1" as="geometry">
            <mxPoint x="529" y="243" as="sourcePoint" />
            <mxPoint x="497" y="229" as="targetPoint" />
          </mxGeometry>
        </mxCell>
        <mxCell id="l6pqS2dVSHnxyNAQUy2T-40" value="" style="endArrow=block;html=1;rounded=1;hachureGap=4;fontFamily=Architects Daughter;fontSource=https%3A%2F%2Ffonts.googleapis.com%2Fcss%3Ffamily%3DArchitects%2BDaughter;fontSize=16;entryX=1;entryY=0;entryDx=0;entryDy=0;exitX=0;exitY=1;exitDx=0;exitDy=0;endFill=0;" parent="1" source="l6pqS2dVSHnxyNAQUy2T-37" target="l6pqS2dVSHnxyNAQUy2T-34" edge="1">
          <mxGeometry width="50" height="50" relative="1" as="geometry">
            <mxPoint x="562" y="487" as="sourcePoint" />
            <mxPoint x="586" y="520" as="targetPoint" />
          </mxGeometry>
        </mxCell>
        <mxCell id="l6pqS2dVSHnxyNAQUy2T-41" value="Edit buyer data" style="ellipse;whiteSpace=wrap;html=1;hachureGap=4;fontFamily=Architects Daughter;fontSource=https%3A%2F%2Ffonts.googleapis.com%2Fcss%3Ffamily%3DArchitects%2BDaughter;fontSize=20;rounded=1;" parent="1" vertex="1">
          <mxGeometry x="659" y="525" width="124" height="62" as="geometry" />
        </mxCell>
        <mxCell id="l6pqS2dVSHnxyNAQUy2T-42" value="" style="endArrow=block;html=1;rounded=1;hachureGap=4;fontFamily=Architects Daughter;fontSource=https%3A%2F%2Ffonts.googleapis.com%2Fcss%3Ffamily%3DArchitects%2BDaughter;fontSize=16;entryX=1;entryY=0.5;entryDx=0;entryDy=0;exitX=0;exitY=0.5;exitDx=0;exitDy=0;endFill=0;" parent="1" source="l6pqS2dVSHnxyNAQUy2T-41" target="l6pqS2dVSHnxyNAQUy2T-34" edge="1">
          <mxGeometry width="50" height="50" relative="1" as="geometry">
            <mxPoint x="637" y="508" as="sourcePoint" />
            <mxPoint x="623" y="528" as="targetPoint" />
          </mxGeometry>
        </mxCell>
        <mxCell id="l6pqS2dVSHnxyNAQUy2T-43" value="Actions" style="ellipse;whiteSpace=wrap;html=1;hachureGap=4;fontFamily=Architects Daughter;fontSource=https%3A%2F%2Ffonts.googleapis.com%2Fcss%3Ffamily%3DArchitects%2BDaughter;fontSize=20;rounded=1;" parent="1" vertex="1">
          <mxGeometry x="539" y="659" width="106" height="53" as="geometry" />
        </mxCell>
        <mxCell id="l6pqS2dVSHnxyNAQUy2T-44" value="" style="endArrow=none;html=1;rounded=1;hachureGap=4;fontFamily=Architects Daughter;fontSource=https%3A%2F%2Ffonts.googleapis.com%2Fcss%3Ffamily%3DArchitects%2BDaughter;fontSize=16;exitX=0.045;exitY=0.314;exitDx=0;exitDy=0;exitPerimeter=0;entryX=1;entryY=1;entryDx=0;entryDy=0;" parent="1" source="l6pqS2dVSHnxyNAQUy2T-43" target="l6pqS2dVSHnxyNAQUy2T-32" edge="1">
          <mxGeometry width="50" height="50" relative="1" as="geometry">
            <mxPoint x="539" y="562" as="sourcePoint" />
            <mxPoint x="493" y="586" as="targetPoint" />
          </mxGeometry>
        </mxCell>
        <mxCell id="l6pqS2dVSHnxyNAQUy2T-45" value="Check all actions" style="ellipse;whiteSpace=wrap;html=1;hachureGap=4;fontFamily=Architects Daughter;fontSource=https%3A%2F%2Ffonts.googleapis.com%2Fcss%3Ffamily%3DArchitects%2BDaughter;fontSize=20;rounded=1;" parent="1" vertex="1">
          <mxGeometry x="539" y="573" width="106" height="53" as="geometry" />
        </mxCell>
        <mxCell id="l6pqS2dVSHnxyNAQUy2T-46" value="" style="endArrow=block;html=1;rounded=1;hachureGap=4;fontFamily=Architects Daughter;fontSource=https%3A%2F%2Ffonts.googleapis.com%2Fcss%3Ffamily%3DArchitects%2BDaughter;fontSize=16;exitX=0.5;exitY=1;exitDx=0;exitDy=0;entryX=0.5;entryY=0;entryDx=0;entryDy=0;endFill=0;" parent="1" source="l6pqS2dVSHnxyNAQUy2T-45" target="l6pqS2dVSHnxyNAQUy2T-43" edge="1">
          <mxGeometry width="50" height="50" relative="1" as="geometry">
            <mxPoint x="669" y="566" as="sourcePoint" />
            <mxPoint x="645" y="678" as="targetPoint" />
          </mxGeometry>
        </mxCell>
        <mxCell id="l6pqS2dVSHnxyNAQUy2T-53" value="Open action" style="ellipse;whiteSpace=wrap;html=1;hachureGap=4;fontFamily=Architects Daughter;fontSource=https%3A%2F%2Ffonts.googleapis.com%2Fcss%3Ffamily%3DArchitects%2BDaughter;fontSize=20;rounded=1;" parent="1" vertex="1">
          <mxGeometry x="650" y="758" width="106" height="53" as="geometry" />
        </mxCell>
        <mxCell id="l6pqS2dVSHnxyNAQUy2T-54" value="Add action" style="ellipse;whiteSpace=wrap;html=1;hachureGap=4;fontFamily=Architects Daughter;fontSource=https%3A%2F%2Ffonts.googleapis.com%2Fcss%3Ffamily%3DArchitects%2BDaughter;fontSize=20;rounded=1;" parent="1" vertex="1">
          <mxGeometry x="534" y="761" width="106" height="53" as="geometry" />
        </mxCell>
        <mxCell id="l6pqS2dVSHnxyNAQUy2T-55" value="" style="endArrow=block;html=1;rounded=1;hachureGap=4;fontFamily=Architects Daughter;fontSource=https%3A%2F%2Ffonts.googleapis.com%2Fcss%3Ffamily%3DArchitects%2BDaughter;fontSize=16;entryX=1;entryY=1;entryDx=0;entryDy=0;exitX=0.222;exitY=0.05;exitDx=0;exitDy=0;exitPerimeter=0;endFill=0;" parent="1" source="l6pqS2dVSHnxyNAQUy2T-53" target="l6pqS2dVSHnxyNAQUy2T-43" edge="1">
          <mxGeometry width="50" height="50" relative="1" as="geometry">
            <mxPoint x="673" y="708" as="sourcePoint" />
            <mxPoint x="647" y="710" as="targetPoint" />
          </mxGeometry>
        </mxCell>
        <mxCell id="l6pqS2dVSHnxyNAQUy2T-56" value="" style="endArrow=block;html=1;rounded=1;hachureGap=4;fontFamily=Architects Daughter;fontSource=https%3A%2F%2Ffonts.googleapis.com%2Fcss%3Ffamily%3DArchitects%2BDaughter;fontSize=16;entryX=0.5;entryY=1;entryDx=0;entryDy=0;exitX=0.551;exitY=0.035;exitDx=0;exitDy=0;exitPerimeter=0;endFill=0;" parent="1" source="l6pqS2dVSHnxyNAQUy2T-54" target="l6pqS2dVSHnxyNAQUy2T-43" edge="1">
          <mxGeometry width="50" height="50" relative="1" as="geometry">
            <mxPoint x="684" y="771" as="sourcePoint" />
            <mxPoint x="639" y="714" as="targetPoint" />
          </mxGeometry>
        </mxCell>
        <mxCell id="l6pqS2dVSHnxyNAQUy2T-57" value="Edit action" style="ellipse;whiteSpace=wrap;html=1;hachureGap=4;fontFamily=Architects Daughter;fontSource=https%3A%2F%2Ffonts.googleapis.com%2Fcss%3Ffamily%3DArchitects%2BDaughter;fontSize=20;rounded=1;" parent="1" vertex="1">
          <mxGeometry x="428" y="724" width="106" height="53" as="geometry" />
        </mxCell>
        <mxCell id="l6pqS2dVSHnxyNAQUy2T-58" value="" style="endArrow=block;html=1;rounded=1;hachureGap=4;fontFamily=Architects Daughter;fontSource=https%3A%2F%2Ffonts.googleapis.com%2Fcss%3Ffamily%3DArchitects%2BDaughter;fontSize=16;entryX=0.213;entryY=0.96;entryDx=0;entryDy=0;exitX=0.942;exitY=0.234;exitDx=0;exitDy=0;exitPerimeter=0;entryPerimeter=0;endFill=0;" parent="1" source="l6pqS2dVSHnxyNAQUy2T-57" target="l6pqS2dVSHnxyNAQUy2T-43" edge="1">
          <mxGeometry width="50" height="50" relative="1" as="geometry">
            <mxPoint x="602" y="773" as="sourcePoint" />
            <mxPoint x="602" y="722" as="targetPoint" />
          </mxGeometry>
        </mxCell>
        <mxCell id="l6pqS2dVSHnxyNAQUy2T-59" value="Delete" style="ellipse;whiteSpace=wrap;html=1;hachureGap=4;fontFamily=Architects Daughter;fontSource=https%3A%2F%2Ffonts.googleapis.com%2Fcss%3Ffamily%3DArchitects%2BDaughter;fontSize=20;rounded=1;" parent="1" vertex="1">
          <mxGeometry x="299" y="655" width="106" height="53" as="geometry" />
        </mxCell>
        <mxCell id="l6pqS2dVSHnxyNAQUy2T-63" value="" style="endArrow=block;html=1;rounded=1;hachureGap=4;fontFamily=Architects Daughter;fontSource=https%3A%2F%2Ffonts.googleapis.com%2Fcss%3Ffamily%3DArchitects%2BDaughter;fontSize=16;endFill=0;" parent="1" edge="1">
          <mxGeometry width="50" height="50" relative="1" as="geometry">
            <mxPoint x="426" y="415" as="sourcePoint" />
            <mxPoint x="369" y="448" as="targetPoint" />
          </mxGeometry>
        </mxCell>
        <mxCell id="l6pqS2dVSHnxyNAQUy2T-64" value="" style="endArrow=none;html=1;rounded=1;hachureGap=4;fontFamily=Architects Daughter;fontSource=https%3A%2F%2Ffonts.googleapis.com%2Fcss%3Ffamily%3DArchitects%2BDaughter;fontSize=16;entryX=0;entryY=1;entryDx=0;entryDy=0;exitX=0.728;exitY=0.047;exitDx=0;exitDy=0;exitPerimeter=0;" parent="1" source="l6pqS2dVSHnxyNAQUy2T-59" target="l6pqS2dVSHnxyNAQUy2T-32" edge="1">
          <mxGeometry width="50" height="50" relative="1" as="geometry">
            <mxPoint x="346" y="636" as="sourcePoint" />
            <mxPoint x="456" y="579" as="targetPoint" />
          </mxGeometry>
        </mxCell>
        <mxCell id="l6pqS2dVSHnxyNAQUy2T-65" value="Delete action" style="ellipse;whiteSpace=wrap;html=1;hachureGap=4;fontFamily=Architects Daughter;fontSource=https%3A%2F%2Ffonts.googleapis.com%2Fcss%3Ffamily%3DArchitects%2BDaughter;fontSize=20;rounded=1;" parent="1" vertex="1">
          <mxGeometry x="239" y="569" width="106" height="53" as="geometry" />
        </mxCell>
        <mxCell id="l6pqS2dVSHnxyNAQUy2T-66" value="" style="endArrow=block;html=1;rounded=1;hachureGap=4;fontFamily=Architects Daughter;fontSource=https%3A%2F%2Ffonts.googleapis.com%2Fcss%3Ffamily%3DArchitects%2BDaughter;fontSize=16;entryX=0.338;entryY=0.036;entryDx=0;entryDy=0;exitX=0.607;exitY=1.014;exitDx=0;exitDy=0;exitPerimeter=0;entryPerimeter=0;endFill=0;" parent="1" source="l6pqS2dVSHnxyNAQUy2T-65" target="l6pqS2dVSHnxyNAQUy2T-59" edge="1">
          <mxGeometry width="50" height="50" relative="1" as="geometry">
            <mxPoint x="538" y="746" as="sourcePoint" />
            <mxPoint x="572" y="720" as="targetPoint" />
          </mxGeometry>
        </mxCell>
        <mxCell id="l6pqS2dVSHnxyNAQUy2T-67" value="Delete chosen ticket" style="ellipse;whiteSpace=wrap;html=1;hachureGap=4;fontFamily=Architects Daughter;fontSource=https%3A%2F%2Ffonts.googleapis.com%2Fcss%3Ffamily%3DArchitects%2BDaughter;fontSize=20;rounded=1;" parent="1" vertex="1">
          <mxGeometry x="147" y="618" width="126" height="69" as="geometry" />
        </mxCell>
        <mxCell id="l6pqS2dVSHnxyNAQUy2T-68" value="" style="endArrow=block;html=1;rounded=1;hachureGap=4;fontFamily=Architects Daughter;fontSource=https%3A%2F%2Ffonts.googleapis.com%2Fcss%3Ffamily%3DArchitects%2BDaughter;fontSize=16;entryX=0.036;entryY=0.307;entryDx=0;entryDy=0;exitX=1;exitY=0.5;exitDx=0;exitDy=0;entryPerimeter=0;endFill=0;" parent="1" source="l6pqS2dVSHnxyNAQUy2T-67" target="l6pqS2dVSHnxyNAQUy2T-59" edge="1">
          <mxGeometry width="50" height="50" relative="1" as="geometry">
            <mxPoint x="313" y="633" as="sourcePoint" />
            <mxPoint x="345" y="667" as="targetPoint" />
          </mxGeometry>
        </mxCell>
        <mxCell id="l6pqS2dVSHnxyNAQUy2T-69" value="Delete all ticket by action" style="ellipse;whiteSpace=wrap;html=1;hachureGap=4;fontFamily=Architects Daughter;fontSource=https%3A%2F%2Ffonts.googleapis.com%2Fcss%3Ffamily%3DArchitects%2BDaughter;fontSize=20;rounded=1;" parent="1" vertex="1">
          <mxGeometry x="152" y="700" width="143" height="85" as="geometry" />
        </mxCell>
        <mxCell id="l6pqS2dVSHnxyNAQUy2T-70" value="" style="endArrow=block;html=1;rounded=1;hachureGap=4;fontFamily=Architects Daughter;fontSource=https%3A%2F%2Ffonts.googleapis.com%2Fcss%3Ffamily%3DArchitects%2BDaughter;fontSize=16;entryX=0;entryY=1;entryDx=0;entryDy=0;exitX=0.946;exitY=0.227;exitDx=0;exitDy=0;exitPerimeter=0;endFill=0;" parent="1" source="l6pqS2dVSHnxyNAQUy2T-69" target="l6pqS2dVSHnxyNAQUy2T-59" edge="1">
          <mxGeometry width="50" height="50" relative="1" as="geometry">
            <mxPoint x="283" y="663" as="sourcePoint" />
            <mxPoint x="313" y="681" as="targetPoint" />
          </mxGeometry>
        </mxCell>
        <mxCell id="l6pqS2dVSHnxyNAQUy2T-71" value="Delete all tickets" style="ellipse;whiteSpace=wrap;html=1;hachureGap=4;fontFamily=Architects Daughter;fontSource=https%3A%2F%2Ffonts.googleapis.com%2Fcss%3Ffamily%3DArchitects%2BDaughter;fontSize=20;rounded=1;" parent="1" vertex="1">
          <mxGeometry x="302" y="741" width="111.04" height="66" as="geometry" />
        </mxCell>
        <mxCell id="l6pqS2dVSHnxyNAQUy2T-72" value="" style="endArrow=block;html=1;rounded=1;hachureGap=4;fontFamily=Architects Daughter;fontSource=https%3A%2F%2Ffonts.googleapis.com%2Fcss%3Ffamily%3DArchitects%2BDaughter;fontSize=16;entryX=0.5;entryY=1;entryDx=0;entryDy=0;exitX=0.5;exitY=0;exitDx=0;exitDy=0;endFill=0;" parent="1" source="l6pqS2dVSHnxyNAQUy2T-71" target="l6pqS2dVSHnxyNAQUy2T-59" edge="1">
          <mxGeometry width="50" height="50" relative="1" as="geometry">
            <mxPoint x="313" y="633" as="sourcePoint" />
            <mxPoint x="345" y="667" as="targetPoint" />
          </mxGeometry>
        </mxCell>
      </root>
    </mxGraphModel>
  </diagram>
</mxfile>
